<?xml version="1.0" encoding="UTF-8"?>
<svg version="1.1" xmlns="http://www.w3.org/2000/svg" width="500" height="500">
<path d="M0 0 C165 0 330 0 500 0 C500 165 500 330 500 500 C335 500 170 500 0 500 C0 335 0 170 0 0 Z " fill="#FEFEFE" transform="translate(0,0)"/>
<path d="M0 0 C11.84154203 -0.07016212 23.68303292 -0.12314196 35.52474213 -0.15543652 C41.02601066 -0.17095268 46.52713483 -0.19192691 52.02832031 -0.22631836 C57.35817336 -0.25942213 62.68788944 -0.27695792 68.01783752 -0.28463173 C70.02993419 -0.29008536 72.04202518 -0.30072759 74.05406189 -0.31719017 C99.00733427 -0.51284351 127.91402361 -0.17015384 147.3125 17.75 C156.30837623 27.30925433 158.49003123 38.94365347 158.25 51.6953125 C157.57055228 60.67676207 155.01117705 68.52668394 150 76 C149.61585938 76.60328125 149.23171875 77.2065625 148.8359375 77.828125 C141.74854087 87.48089833 128.21272783 92.41736486 117 95 C115.86606812 95.26707764 115.86606812 95.26707764 114.70922852 95.53955078 C106.58075864 97.25677988 98.5869692 97.22995318 90.3125 97.125 C88.9173242 97.11494059 87.5221413 97.10582002 86.12695312 97.09765625 C82.7511163 97.07429406 79.37565382 97.04153668 76 97 C80.49008744 103.44086717 80.49008744 103.44086717 86.5625 108.3125 C87.28566406 108.76238281 88.00882812 109.21226562 88.75390625 109.67578125 C90.98827484 111.03947614 90.98827484 111.03947614 93.40234375 112.1328125 C97.27313572 114.91512612 99.42267614 118.60071534 102 122.5625 C103.15288346 124.29174273 104.30788608 126.01957423 105.46484375 127.74609375 C106.34438721 129.06262939 106.34438721 129.06262939 107.24169922 130.40576172 C109.93114554 134.37383401 112.73889853 138.25175631 115.5625 142.125 C121.27831529 149.98713777 126.90290235 157.90927098 132.49414062 165.86035156 C134.57731433 168.82029552 136.66607437 171.77628028 138.75463867 174.73242188 C143.51950804 181.47686634 148.27449797 188.22788969 153 195 C152.34 195.33 151.68 195.66 151 196 C134.61193957 189.66491395 124.93562678 176.25231733 115.45703125 162.16259766 C114.04785806 160.07103329 112.621698 157.99243371 111.1875 155.91796875 C108.44668564 151.95324737 105.72247891 147.97732492 103 144 C101.27217754 141.47824247 99.54294599 138.95745796 97.8125 136.4375 C97.37663574 135.80271729 96.94077148 135.16793457 96.49169922 134.51391602 C91.5200493 127.28474014 86.50164598 120.0880173 81.48168945 112.89233398 C80.50268677 111.48769897 80.50268677 111.48769897 79.50390625 110.0546875 C78.92455322 109.22437012 78.3452002 108.39405273 77.74829102 107.53857422 C76 105 76 105 74.54663086 101.73876953 C71.52847808 98.49290261 70.64073033 98.52337414 66.359375 98.1953125 C64.1567647 98.14223755 61.95324373 98.11988807 59.75 98.125 C58.62335938 98.104375 57.49671875 98.08375 56.3359375 98.0625 C53.55655446 98.01539181 50.77970081 97.99555958 48 98 C48.03806059 109.23996544 48.09742794 120.47959788 48.18390274 131.71930122 C48.22339039 136.93853121 48.25557263 142.15759215 48.27099609 147.37695312 C48.28615408 152.41515994 48.32058465 157.45290205 48.36830902 162.49090195 C48.38313162 164.41175164 48.39104152 166.33266767 48.39188385 168.25357437 C48.39425261 170.94705844 48.42132446 173.63925734 48.45410156 176.33251953 C48.4490712 177.12446213 48.44404083 177.91640472 48.43885803 178.73234558 C48.53618585 183.91100976 49.58631423 186.88443445 53 191 C55.70183055 192.35091528 58.11808206 192.33858058 61.125 192.5625 C62.22070312 192.64628906 63.31640625 192.73007812 64.4453125 192.81640625 C65.28835937 192.87699219 66.13140625 192.93757812 67 193 C67 194.32 67 195.64 67 197 C44.89 197 22.78 197 0 197 C0 195.68 0 194.36 0 193 C0.90363281 192.89042969 1.80726562 192.78085937 2.73828125 192.66796875 C3.91777344 192.50941406 5.09726562 192.35085938 6.3125 192.1875 C7.48425781 192.03667969 8.65601563 191.88585937 9.86328125 191.73046875 C13.03364102 190.99216579 14.15176087 190.60519714 16 188 C17.16492144 184.50523567 17.13776164 181.75657312 17.15390015 178.06716919 C17.1582824 177.35759563 17.16266465 176.64802208 17.1671797 175.91694629 C17.18056106 173.5333326 17.186745 171.14975588 17.19287109 168.76611328 C17.20077242 167.05951775 17.20904139 165.35292389 17.21765137 163.64633179 C17.24386212 158.03767491 17.25917538 152.42901058 17.2734375 146.8203125 C17.27879706 144.89033885 17.28417457 142.96036525 17.28956985 141.03039169 C17.31119479 133.00437377 17.32993297 124.97835787 17.34119225 116.95231819 C17.3574424 105.44402297 17.39065041 93.93606478 17.44759309 82.42789662 C17.48625729 74.33865287 17.5058206 66.24949941 17.51111281 58.16016567 C17.51477034 53.32697233 17.52683452 48.49413854 17.55921555 43.66104507 C17.58923529 39.11536641 17.59562995 34.57026601 17.58383179 30.02450943 C17.58361056 28.35597582 17.59195642 26.68741584 17.60948563 25.0189743 C17.63211799 22.74088298 17.62391273 20.46489931 17.60800171 18.1867981 C17.61131186 16.91216768 17.614622 15.63753727 17.61803246 14.32428169 C16.83681984 10.12228425 15.26216811 8.66487132 12 6 C9.56612247 4.78306124 7.58161154 4.68040104 4.875 4.4375 C3.96492188 4.35371094 3.05484375 4.26992187 2.1171875 4.18359375 C1.41851562 4.12300781 0.71984375 4.06242187 0 4 C0 2.68 0 1.36 0 0 Z " fill="#040404" transform="translate(31,122)"/>
<path d="M0 0 C13.53 0 27.06 0 41 0 C46.73064985 12.60742967 46.73064985 12.60742967 49.06640625 18.8125 C49.33754242 19.52304535 49.60867859 20.2335907 49.88803101 20.96566772 C50.47441932 22.5026862 51.05938408 24.04024841 51.64303589 25.57830811 C53.27670368 29.88107533 54.92354747 34.17879419 56.5703125 38.4765625 C56.9226445 39.39643951 57.2749765 40.31631653 57.63798523 41.2640686 C62.0094034 52.65851189 66.47413463 64.01633541 70.9375 75.375 C72.63418397 79.69398316 74.33077837 84.0130015 76.02734375 88.33203125 C76.443293 89.3907695 76.85924225 90.44950775 77.28779602 91.54032898 C82.20616714 104.06363191 87.09301031 116.5992216 91.97631836 129.13623047 C94.95119575 136.7708913 97.93098315 144.40251535 101 152 C104.92732337 143.55146533 108.1292796 134.85021777 111.375 126.125 C112.02263445 124.39029371 112.67051025 122.65567751 113.31860352 120.92114258 C114.75431976 117.07680951 116.18812979 113.2317722 117.62060547 109.38623047 C119.72590429 103.7345273 121.83412273 98.08391746 123.94303894 92.43356323 C135.4622166 61.57600918 135.4622166 61.57600918 146.9296875 30.69921875 C148.04117579 27.70102506 149.15280236 24.70288267 150.26443481 21.70474243 C151.29219868 18.92981292 152.31693519 16.15377803 153.34155273 13.37768555 C153.95282216 11.72830094 154.56422298 10.07896503 155.17578125 8.4296875 C155.45070404 7.68172409 155.72562683 6.93376068 156.00888062 6.16313171 C157.8862596 1.1137404 157.8862596 1.1137404 159 0 C160.5348297 -0.09319449 162.07392082 -0.117458 163.61157227 -0.11352539 C164.59251358 -0.11344986 165.5734549 -0.11337433 166.5841217 -0.11329651 C167.6507756 -0.10813522 168.7174295 -0.10297394 169.81640625 -0.09765625 C171.44569313 -0.09553383 171.44569313 -0.09553383 173.1078949 -0.09336853 C176.59279075 -0.08775048 180.07762342 -0.07519492 183.5625 -0.0625 C185.91861887 -0.05748733 188.27473874 -0.05292402 190.63085938 -0.04882812 C196.42059464 -0.03777519 202.21029281 -0.02101951 208 0 C208 1.32 208 2.64 208 4 C206.66195312 4.03867188 206.66195312 4.03867188 205.296875 4.078125 C204.12640625 4.13484375 202.9559375 4.1915625 201.75 4.25 C200.00976562 4.31960937 200.00976562 4.31960937 198.234375 4.390625 C194.48289377 5.09742581 193.29343782 6.0076097 191 9 C189.83456974 12.49629077 189.86521131 15.24179819 189.85282898 18.93283081 C189.84915229 19.64240437 189.8454756 20.35197792 189.8416875 21.08305371 C189.83065232 23.466672 189.82680715 25.8502467 189.82299805 28.23388672 C189.81673339 29.94048196 189.81008659 31.64707583 189.80308533 33.35366821 C189.78567877 37.99416941 189.77512501 42.63466031 189.7668798 47.27518606 C189.76173005 50.17332863 189.75565438 53.071468 189.74936867 55.96960831 C189.73031954 65.03423674 189.7160865 74.09885702 189.7077567 83.16350162 C189.69797724 93.63313068 189.67163808 104.10254871 189.63125581 114.57210338 C189.60112311 122.66134888 189.58629063 130.75053378 189.58297569 138.83983433 C189.58062242 143.67296974 189.5716258 148.50587963 189.54651451 153.33895493 C189.52327777 157.88457707 189.51898273 162.42982449 189.52927589 166.97549057 C189.5297724 168.64401494 189.52341821 170.31255749 189.50971985 171.9810257 C189.49206424 174.25886908 189.49907442 176.53535827 189.51225281 178.8132019 C189.50867028 180.72514752 189.50867028 180.72514752 189.50501537 182.67571831 C190.08669877 186.58226278 191.24761867 188.22290154 194 191 C196.70183055 192.35091528 199.11808206 192.33858058 202.125 192.5625 C203.22070312 192.64628906 204.31640625 192.73007812 205.4453125 192.81640625 C206.28835938 192.87699219 207.13140625 192.93757812 208 193 C208 194.32 208 195.64 208 197 C185.56 197 163.12 197 140 197 C140 195.68 140 194.36 140 193 C141.10408203 192.94392578 141.10408203 192.94392578 142.23046875 192.88671875 C149.68850182 192.57397336 149.68850182 192.57397336 156 189 C158.07945591 184.92323618 158.24720882 181.48397761 158.24050903 176.94487 C158.24221788 176.24639397 158.24392673 175.54791794 158.24568737 174.82827598 C158.24897426 172.49438012 158.23799194 170.16077355 158.22705078 167.8269043 C158.22648649 166.15131131 158.22680357 164.47571782 158.22793579 162.80012512 C158.22850962 158.25506825 158.21675039 153.71011694 158.20278788 149.1650846 C158.19028558 144.4138389 158.18911041 139.66259079 158.18673706 134.91133118 C158.18052083 125.91581866 158.16410805 116.92035475 158.14403808 107.92486364 C158.12168357 97.6831114 158.11068677 87.44135684 158.10064721 77.19958627 C158.07974196 56.13303038 158.04456317 35.06651825 158 14 C157.76591714 14.63707288 157.53183428 15.27414576 157.290658 15.93052387 C136.13542681 73.49870764 136.13542681 73.49870764 125.44308472 101.7131958 C122.74682481 108.82832495 120.06076288 115.94730951 117.375 123.06640625 C117.1069348 123.77682823 116.83886959 124.48725021 116.5626812 125.21920013 C110.79806458 140.50031991 105.10449116 155.80743892 99.4375 171.125 C98.79263138 172.86745499 98.79263138 172.86745499 98.13473511 174.64511108 C96.94175349 177.8698339 95.74980097 181.09493384 94.55859375 184.3203125 C94.20889526 185.26676132 93.85919678 186.21321014 93.49890137 187.18833923 C93.18142944 188.04931717 92.86395752 188.9102951 92.53686523 189.79736328 C92.26220932 190.54188751 91.98755341 191.28641174 91.70457458 192.05349731 C91.11099347 193.69336237 90.55149759 195.34550723 90 197 C87.63038635 196.75386047 87.63038635 196.75386047 85 196 C83.77403259 194.25553894 83.77403259 194.25553894 82.91381836 191.93823242 C82.40938454 190.62534492 82.40938454 190.62534492 81.89476013 189.28593445 C81.37257652 187.83535393 81.37257652 187.83535393 80.83984375 186.35546875 C80.45768204 185.34486893 80.07552032 184.3342691 79.68177795 183.29304504 C78.41511034 179.93117795 77.17675849 176.55955656 75.9375 173.1875 C75.0509554 170.82146745 74.16225032 168.4562434 73.27148438 166.09179688 C71.41979637 161.17156182 69.57752446 156.24795198 67.74169922 151.32177734 C63.98002233 141.24890704 60.10643392 131.2195991 56.2315979 121.18984985 C54.1648286 115.83689842 52.10614458 110.48084 50.046875 105.125 C49.63677689 104.05884964 49.22667877 102.99269928 48.80415344 101.89424133 C46.18102563 95.07426254 43.56109035 88.25306381 40.94299316 81.43115234 C39.14499145 76.74647424 37.345969 72.06218841 35.546875 67.37792969 C34.69936306 65.17044188 33.85233697 62.96276746 33.00585938 60.75488281 C28.92758391 50.11776531 24.82838515 39.49003152 20.61328125 28.90625 C20.29292908 28.09897461 19.9725769 27.29169922 19.64251709 26.45996094 C15.52275801 14.93168934 15.52275801 14.93168934 7.375 6.375 C3.76624392 4.89258764 3.76624392 4.89258764 0 4 C0 2.68 0 1.36 0 0 Z " fill="#030303" transform="translate(284,124)"/>
<path d="M0 0 C56.32702465 0 56.32702465 0 69.6875 12.1875 C78.1289956 21.03372484 80.34574008 32.12157905 80.25 43.9375 C80.26160156 45.36352539 80.26160156 45.36352539 80.2734375 46.81835938 C80.24293523 57.8830566 77.4945415 68.51502613 70.1796875 77.1484375 C51.43692729 94.52532855 23.35966718 90 0 90 C0 60.3 0 30.6 0 0 Z " fill="#FEFEFE" transform="translate(79,126)"/>
<path d="M0 0 C2.50203661 2.48419677 4.9809516 4.97983657 7.40234375 7.54296875 C17.93532038 18.53037272 30.45033672 26.31397789 43.08569336 34.66699219 C62.90731948 47.84904777 84.83801905 62.48007384 90.4375 87.25 C92.5428783 101.66014478 89.89664178 116.15773373 81.47265625 128.1796875 C72.45124601 139.42991674 58.64352751 143.62320535 44.84765625 145.6953125 C40.86175872 146.12178713 37.00491454 146.13349715 33 146 C33 143.69 33 141.38 33 139 C34.07378906 138.69707031 35.14757812 138.39414062 36.25390625 138.08203125 C49.54736546 134.4434757 49.54736546 134.4434757 58.8125 124.6875 C63.26394862 115.82853153 64.56426995 107.0904256 61.4375 97.5625 C53.36379322 77.36416736 33.83665756 65.26151203 16.5625 53.5625 C10.07329208 49.16731313 3.6933511 44.66004769 -2.5625 39.9375 C-3.28300537 39.40133057 -4.00351074 38.86516113 -4.74584961 38.31274414 C-5.4085083 37.80606201 -6.07116699 37.29937988 -6.75390625 36.77734375 C-7.33470947 36.33640381 -7.9155127 35.89546387 -8.51391602 35.44116211 C-10.25217773 33.75544518 -11.14505714 32.26090545 -12 30 C-11.05859375 27.984375 -11.05859375 27.984375 -9.4375 25.75 C-4.39344552 17.99881536 -2.13016448 8.93294781 0 0 Z " fill="#020202" transform="translate(199,176)"/>
<path d="M0 0 C2.48568489 1.64488191 3.68618132 3.3194404 5.33422852 5.80126953 C5.94129639 6.70482178 6.54836426 7.60837402 7.17382812 8.53930664 C7.81328369 9.51005127 8.45273926 10.4807959 9.11157227 11.48095703 C10.4680923 13.50586465 11.82486444 15.5306034 13.18188477 17.55517578 C13.84478516 18.55081543 14.50768555 19.54645508 15.19067383 20.57226562 C17.59118691 24.1679895 20.03118089 27.73507627 22.48657227 31.29345703 C23.12054932 32.2144519 23.12054932 32.2144519 23.76733398 33.15405273 C27.91059582 39.16794932 32.07194872 45.16934157 36.23657227 51.16845703 C36.89004639 52.11132568 37.54352051 53.05419434 38.21679688 54.02563477 C41.55003547 58.82034121 44.91171728 63.59372067 48.31860352 68.33642578 C48.95000244 69.21580811 49.58140137 70.09519043 50.23193359 71.0012207 C55.8949203 78.33959324 62.41425225 81.8512583 71.54907227 83.04345703 C72.70407227 83.14658203 73.85907227 83.24970703 75.04907227 83.35595703 C75.04907227 84.67595703 75.04907227 85.99595703 75.04907227 87.35595703 C52.39102304 89.69691263 52.39102304 89.69691263 45.91625977 86.20605469 C42.42671035 82.99781858 40.40140154 78.89739248 38.30395508 74.70068359 C35.98062215 70.35957669 32.98760128 66.46738334 30.11157227 62.48095703 C28.91442505 60.77090913 27.72039716 59.05867315 26.52954102 57.34423828 C23.3440372 52.7740388 20.1393534 48.21774342 16.92407227 43.66845703 C16.19546997 42.63748901 16.19546997 42.63748901 15.45214844 41.58569336 C14.47672516 40.20567172 13.50122087 38.82570733 12.52563477 37.44580078 C11.01115689 35.30229373 9.49859937 33.15744345 7.98657227 31.01220703 C1.70639437 22.1034885 -4.60358848 13.21695498 -10.95092773 4.35595703 C-10.34249023 4.06205078 -9.73405273 3.76814453 -9.10717773 3.46533203 C-6.82976049 2.35503737 -6.82976049 2.35503737 -4.45092773 0.60595703 C-1.95092773 -0.64404297 -1.95092773 -0.64404297 0 0 Z " fill="#050505" transform="translate(145.950927734375,231.64404296875)"/>
<path d="M0 0 C4.91549755 2.50584562 8.41205193 3.03047869 13.93359375 2.59179688 C14.92359375 2.26179687 15.91359375 1.93179688 16.93359375 1.59179688 C17.73923013 -0.51404751 17.73923013 -0.51404751 18.12109375 -2.97070312 C18.27964844 -3.79699219 18.43820312 -4.62328125 18.6015625 -5.47460938 C18.71113281 -6.11269531 18.82070313 -6.75078125 18.93359375 -7.40820312 C19.92359375 -7.40820312 20.91359375 -7.40820312 21.93359375 -7.40820312 C21.93359375 13.71179688 21.93359375 34.83179688 21.93359375 56.59179688 C20.94359375 56.59179688 19.95359375 56.59179688 18.93359375 56.59179688 C18.76923828 55.05072266 18.76923828 55.05072266 18.6015625 53.47851562 C16.68046525 36.28854579 12.66783171 19.44170465 -1.20703125 7.79492188 C-10.85613706 0.5114033 -20.28709289 -2.82934059 -32.31640625 -2.90820312 C-33.14382324 -2.91456787 -33.97124023 -2.92093262 -34.82373047 -2.92749023 C-42.84050622 -2.76184114 -50.95660722 -0.82370681 -57.06640625 4.59179688 C-58.98875105 7.82113271 -60.57893411 11.14296766 -62.06640625 14.59179688 C-64.67861882 12.07878225 -67.00635038 9.38380685 -69.31640625 6.59179688 C-70.0434375 5.72554687 -70.77046875 4.85929688 -71.51953125 3.96679688 C-72.03 3.18304688 -72.54046875 2.39929688 -73.06640625 1.59179688 C-72.06640625 -1.40820312 -72.06640625 -1.40820312 -69.37109375 -2.94335938 C-44.92966618 -13.82786755 -23.36639167 -12.3899298 0 0 Z " fill="#080808" transform="translate(256.06640625,129.408203125)"/>
</svg>
